<svg id="Layer_1" data-name="Layer 1" xmlns="http://www.w3.org/2000/svg" viewBox="0 0 1920 220"><defs><style>.cls-1{fill:#fcfcfc;}</style></defs><path class="cls-1" d="M13.48,173.91V140.8H130.11a15.83,15.83,0,0,0,0-31.65H46.59V76h83.52a15.83,15.83,0,0,0,0-31.65H13.48V11.51H130.11a48.62,48.62,0,0,1,36.52,81.08,48.8,48.8,0,0,1-36.52,81.32Zm204.52,0V11.51H333.9a49.52,49.52,0,0,1,49.67,49.43v63.3a49.56,49.56,0,0,1-49.67,49.67Zm132.46-49.67V60.94A16.58,16.58,0,0,0,333.9,44.38H251.11V140.8H333.9A16.42,16.42,0,0,0,350.46,124.24ZM545,155.17V76.28H661.38a15.83,15.83,0,0,0,0-31.66H578.1V64.83L545,11.51H661.38a48.94,48.94,0,1,1,0,97.88H578.1v99.1Zm323.35,18.74L811.6,109.15H780v64.76H746.84V11.51H863.47a48.82,48.82,0,1,1,0,97.64h-7.8l56.74,64.76Zm10.95-113.7a15.79,15.79,0,0,0-15.82-15.83H780V76h83.52A15.79,15.79,0,0,0,879.29,60.21Zm118.09,113.7a49.5,49.5,0,0,1-49.67-49.42V61.18a49.56,49.56,0,0,1,49.67-49.67h66A49.72,49.72,0,0,1,1113,61.18v63.31a49.66,49.66,0,0,1-49.67,49.42Zm82.54-49.42V61.18a16.58,16.58,0,0,0-16.56-16.56h-66a16.42,16.42,0,0,0-16.56,16.56v63.31A16.57,16.57,0,0,0,997.38,141h66A16.73,16.73,0,0,0,1079.92,124.49Zm-55-20.7a5.5,5.5,0,0,1-5.6-5.6v-11a5.45,5.45,0,0,1,5.6-5.35h11a5.62,5.62,0,0,1,5.6,5.35v11a5.66,5.66,0,0,1-5.6,5.6ZM1152,173.91V11.51h115.9a49.51,49.51,0,0,1,49.67,49.43v63.3a49.56,49.56,0,0,1-49.67,49.67Zm132.46-49.67V60.94a16.58,16.58,0,0,0-16.56-16.56H1185.1V140.8h82.78A16.42,16.42,0,0,0,1284.44,124.24Zm121.74,49.67a49.57,49.57,0,0,1-49.68-49.67V11.51h33.12V124.24a16.57,16.57,0,0,0,16.56,16.56h66.22A16.42,16.42,0,0,0,1489,124.24V11.51h33.11V124.24a49.56,49.56,0,0,1-49.67,49.67Zm204.52,0A49.56,49.56,0,0,1,1561,124.24V60.94a49.51,49.51,0,0,1,49.67-49.43h66.22a49.52,49.52,0,0,1,49.68,49.43h-33.12a16.57,16.57,0,0,0-16.56-16.56H1610.7a16.74,16.74,0,0,0-16.56,16.56v63.3a16.57,16.57,0,0,0,16.56,16.56h66.22a16.42,16.42,0,0,0,16.56-16.56h33.12a49.57,49.57,0,0,1-49.68,49.67Zm203.79-18.74V44.62H1769l-20.45-33.11h165.32l-20.7,33.11H1847.6V208.49Z"/></svg>